HIERARCHY
ROOT Hips
{
  OFFSET -125.086 92.215 135.881
  CHANNELS 6 Xposition Yposition Zposition Zrotation Xrotation Yrotation
  JOINT LeftUpLeg
  {
    OFFSET 8.64259 1.95398 -2.38835
    CHANNELS 3 Zrotation Xrotation Yrotation
    JOINT LeftLeg
    {
      OFFSET 43.7702 0 0
      CHANNELS 3 Zrotation Xrotation Yrotation
      JOINT LeftFoot
      {
        OFFSET 40.6238 0 0
        CHANNELS 3 Zrotation Xrotation Yrotation
        JOINT LeftToeBase
        {
          OFFSET 12.7242 0 0
          CHANNELS 3 Zrotation Xrotation Yrotation
          End Site
          {
            OFFSET 0 0 0
          }
        }
      }
    }
  }
  JOINT RightUpLeg
  {
    OFFSET -8.2249 1.95398 -2.59336
    CHANNELS 3 Zrotation Xrotation Yrotation
    JOINT RightLeg
    {
      OFFSET 43.5653 0 0
      CHANNELS 3 Zrotation Xrotation Yrotation
      JOINT RightFoot
      {
        OFFSET 40.6238 0 0
        CHANNELS 3 Zrotation Xrotation Yrotation
        JOINT RightToeBase
        {
          OFFSET 12.7242 0 0
          CHANNELS 3 Zrotation Xrotation Yrotation
          End Site
          {
            OFFSET 0 0 0
          }
        }
      }
    }
  }
  JOINT Spine
  {
    OFFSET 0.165834 0.87714 6.61349
    CHANNELS 3 Zrotation Xrotation Yrotation
    JOINT Spine1
    {
      OFFSET 7.38963 1.71661e-005 0
      CHANNELS 3 Zrotation Xrotation Yrotation
      JOINT Spine2
      {
        OFFSET 11.9445 1.14441e-005 0
        CHANNELS 3 Zrotation Xrotation Yrotation
        JOINT Spine3
        {
          OFFSET 14.7254 4.19617e-005 0
          CHANNELS 3 Zrotation Xrotation Yrotation
          JOINT Spine4
          {
            OFFSET 10.9679 0 0
            CHANNELS 3 Zrotation Xrotation Yrotation
            JOINT RightShoulder
            {
              OFFSET 2.46616 -1.6653 3.69651
              CHANNELS 3 Zrotation Xrotation Yrotation
              JOINT RightArm
              {
                OFFSET 13.0012 0 0
                CHANNELS 3 Zrotation Xrotation Yrotation
                JOINT RightForeArm
                {
                  OFFSET 28.7848 1.52588e-005 0
                  CHANNELS 3 Zrotation Xrotation Yrotation
                  JOINT RightHand
                  {
                    OFFSET 26.5688 1.52588e-005 0
                    CHANNELS 3 Zrotation Xrotation Yrotation
                    End Site
                    {
                      OFFSET 0 0 0
                    }
                  }
                }
              }
            }
            JOINT LeftShoulder
            {
              OFFSET 2.38034 -1.29275 -3.7523
              CHANNELS 3 Zrotation Xrotation Yrotation
              JOINT LeftArm
              {
                OFFSET 16.3182 6.10352e-005 0
                CHANNELS 3 Zrotation Xrotation Yrotation
                JOINT LeftForeArm
                {
                  OFFSET 27.0901 0 0
                  CHANNELS 3 Zrotation Xrotation Yrotation
                  JOINT LeftHand
                  {
                    OFFSET 24.5451 1.52588e-005 0
                    CHANNELS 3 Zrotation Xrotation Yrotation
                    End Site
                    {
                      OFFSET 0 0 0
                    }
                  }
                }
              }
            }
            JOINT Neck
            {
              OFFSET 5.0226 -0.0266342 0
              CHANNELS 3 Zrotation Xrotation Yrotation
              JOINT Head
              {
                OFFSET 6.69363 2.86102e-005 0
                CHANNELS 3 Zrotation Xrotation Yrotation
                End Site
                {
                  OFFSET 0 0 0
                }
              }
            }
          }
        }
      }
    }
  }
}
MOTION
Frames:	12
Frame Time:	0.0416667
-303.306 74.5764 320.093 122.612 62.3069 57.3418 178.423 27.2842 71.1862 -77.4728 29.9967 9.17096 80.9071 30.389 30.0878 121.852 -10.763 -1.81444 -143.594 -30.5853 157.428 -121.866 16.0971 -80.3912 -9.27507 -77.8579 89.7531 -20.1895 31.8562 -37.1661 -1.82214 5.46788 -89.892 15.9596 -3.54299 0.790172 4.29315 -3.50477 0.945514 -18.2808 -3.61647 -0.312578 1.73185 -3.61644 -0.312585 120.402 -14.0903 -34.2065 59.9382 -48.5795 13.5118 -0.837957 3.2961 -82.9733 8.71274 7.93329 75.8059 -47.7542 -39.7335 146.663 121.126 -20.5511 -130.498 -144.467 -0.82824 -71.729 37.5394 -5.72053 -19.7951 22.7699 18.3816 -4.39083 -119.706 1.90235 13.7218 
-303.62 74.4872 320.345 121.541 62.3978 59.0011 178.342 28.0481 71.871 -77.8238 30.1011 9.20801 81.6169 31.3791 30.2287 122.483 -11.5856 -2.65804 -144.221 -30.2642 157.605 -122.047 15.6913 -80.5617 0.2992 -78.8202 100.74 -21.2843 31.8239 -36.0984 -1.8086 5.43753 -89.9246 16.0193 -3.53222 0.725523 4.35285 -3.49688 0.880464 -18.2208 -3.58676 -0.370984 1.79185 -3.58677 -0.370992 120.48 -14.3662 -34.2753 60.2441 -48.5736 13.9982 -0.678254 3.29712 -82.7793 9.08785 8.14176 75.0294 -48.1813 -39.052 146.398 121.681 -21.1874 -130.332 -144.561 -0.495146 -71.7296 37.0364 -5.556 -19.5536 22.8315 17.7713 -5.31253 -119.94 0.476609 14.1701 
-304.519 74.2298 321.065 118.384 62.5817 63.8599 178.037 30.307 73.9019 -78.7466 29.7752 9.2681 84.0175 34.1559 29.7685 124.181 -14.089 -5.1675 -145.95 -29.3875 158.171 -123.16 14.3952 -80.9486 32.892 -78.1442 137.381 -24.5509 31.4549 -32.6772 -1.7701 5.34996 -90.0252 16.1912 -3.50587 0.526404 4.52484 -3.47929 0.68037 -18.0479 -3.50178 -0.552922 1.96477 -3.50178 -0.55292 120.714 -15.1655 -34.4506 61.0397 -48.581 15.3172 -0.252307 3.30816 -82.2425 10.2151 8.73936 72.8008 -49.3198 -37.1487 145.718 123.245 -22.9444 -129.801 -144.812 0.37136 -71.6948 35.5608 -5.09072 -18.8522 22.932 16.0594 -7.80144 -120.506 -3.5538 15.4203 
-305.92 73.8217 322.185 113.242 62.6338 71.67 177.305 34.0609 77.2438 -80.384 29.8079 9.42875 87.3295 38.0912 29.3602 126.299 -18.2125 -9.18814 -148.42 -28.1606 159.184 -126.192 12.0364 -81.5087 58.5885 -68.8248 169.08 -29.583 29.8451 -26.4817 -1.71129 5.20876 -90.1978 16.4684 -3.47576 0.185546 4.80206 -3.46421 0.338508 -17.7689 -3.37064 -0.868874 2.24375 -3.37062 -0.868864 121.103 -16.4267 -34.6713 62.082 -48.6803 17.2083 0.327869 3.35503 -81.4639 12.1305 9.66592 69.2959 -50.8911 -34.2987 144.857 125.634 -25.5117 -128.826 -145.134 1.49777 -71.5506 33.1409 -4.38608 -17.7319 22.8819 13.4861 -11.2815 -121.086 -9.71128 17.3104 
-307.723 73.2819 323.632 106.54 62.3324 81.6255 175.774 39.2549 81.7251 -82.7857 30.7404 9.70033 90.5748 42.5021 29.5395 127.823 -23.2342 -14.1088 -151.016 -26.8389 160.536 -131.136 8.57528 -82.7806 64.4168 -50.8822 -178.747 -34.3445 25.8696 -18.1426 -1.64947 5.01432 -90.4196 16.8504 -3.46524 -0.247075 5.18408 -3.47275 -0.0941463 -17.3843 -3.23063 -1.27817 2.62837 -3.23062 -1.27817 121.615 -18.0381 -34.8977 63.1898 -48.9916 19.5001 0.941494 3.47807 -80.5857 14.86 10.8044 64.7055 -52.6527 -30.7791 144.016 128.661 -28.5546 -127.367 -145.39 2.63465 -71.2719 29.7871 -3.53007 -16.2635 22.4534 10.3139 -15.1561 -121.284 -17.46 19.751 
-309.836 72.5968 325.356 99.108 62.1559 92.5114 172.502 45.7068 87.1838 -85.8826 31.9824 10.1813 93.5259 46.8558 29.5784 128.186 -27.88 -18.9368 -154.407 -22.7586 161.522 -126.862 3.33485 -82.7392 67.9477 -34.0987 -163.065 -35.742 19.9773 -9.9974 -1.67642 4.77358 -90.6516 17.3255 -3.63617 -0.664636 5.65957 -3.66189 -0.503745 -16.9088 -3.26816 -1.72777 3.10388 -3.26817 -1.72777 122.181 -19.8361 -35.1398 64.3432 -49.6488 22.2155 1.49783 3.73466 -79.7864 18.3519 11.9674 59.2331 -54.4701 -26.8048 143.29 132.14 -31.7888 -125.482 -145.401 3.63812 -70.9132 25.5183 -2.63044 -14.571 21.4186 6.77982 -18.9592 -120.686 -26.2698 22.7935 
-312.231 71.7629 327.305 90.8836 62.4037 105.04 165.518 52.9817 95.1979 -89.7488 32.6392 11.1219 96.5932 50.6075 28.4359 127.719 -31.2391 -22.777 -161.861 -11.2619 159.815 -107.283 -8.48785 -70.8997 66.8653 -30.361 -137.791 -33.1614 14.3101 -3.83682 -1.85271 4.51091 -90.9757 17.842 -4.1501 -1.20235 6.17723 -4.19898 -1.01824 -16.3958 -3.59675 -2.39527 3.61683 -3.59676 -2.39527 122.71 -21.6358 -35.4409 65.6764 -50.792 25.5586 1.96001 4.21333 -79.2861 22.4279 12.923 53.118 -56.2892 -22.5386 142.688 135.84 -35.0071 -123.338 -144.993 4.45882 -70.5763 20.3927 -1.79892 -12.8383 19.6046 3.06721 -22.3608 -118.888 -35.6106 26.6155 
-314.803 70.871 329.381 82.8781 62.1283 117.977 153.553 59.6034 107.378 -93.7785 32.7308 12.1123 99.5027 53.471 26.4026 127 -33.2622 -25.3633 -167.156 -0.796797 155.685 -101.214 -24.7095 -53.9248 48.5297 -25.9247 -140.684 -28.2718 10.0503 0.339945 -2.07803 4.27389 -91.3753 18.3001 -4.80166 -1.86578 6.63695 -4.87909 -1.65225 -15.941 -4.01893 -3.22401 4.07168 -4.01892 -3.22401 123.119 -23.2797 -35.8446 67.4694 -52.57 29.8993 2.35854 5.0609 -79.3567 26.772 13.4536 46.6554 -58.0875 -18.1274 142.181 139.501 -38.0842 -121.155 -144.054 5.10594 -70.3596 14.5397 -1.1209 -11.2874 16.9609 -0.734612 -25.1697 -115.375 -44.9339 31.5664 
-317.43 69.9956 331.506 75.9373 61.254 129.576 136.341 64.3297 123.87 -97.5649 33.335 12.9826 100.491 55.5142 25.596 126.377 -34.3147 -26.8771 -166.437 3.71653 151.47 -87.2736 -40.4859 -40.4403 32.3408 -16.3332 -145.535 -22.7134 7.17624 3.06905 -2.30976 4.06265 -91.7561 18.7038 -5.45744 -2.48762 7.04239 -5.5616 -2.24449 -15.54 -4.45776 -4.01424 4.47262 -4.45776 -4.01425 123.367 -24.6807 -36.3686 70.2393 -55.1147 35.8612 2.78264 6.51381 -80.3156 30.9977 13.4357 40.1685 -59.8457 -13.7124 141.731 142.886 -40.9655 -119.125 -142.584 5.60918 -70.3147 8.17009 -0.621233 -10.1174 13.5812 -4.61352 -27.3864 -109.217 -53.6546 38.4264 
-320.055 69.1901 333.633 70.3 59.9702 139.275 115.569 66.4405 143.134 -100.728 33.9669 13.6633 99.9719 56.7752 25.4611 125.992 -34.7443 -27.5812 -159.572 1.95889 149.954 -121.968 -70.3562 -85.0281 8.52802 25.424 -159.612 -17.2898 5.25001 4.89008 -2.53045 3.86897 -92.086 19.0725 -6.06571 -3.01235 7.41284 -6.19235 -2.74177 -15.1743 -4.88052 -4.69755 4.83837 -4.88053 -4.69755 123.452 -25.8178 -37.0032 75.0241 -58.4262 44.6047 3.35393 8.8706 -82.5404 34.7602 12.8753 33.9495 -61.5411 -9.41759 141.31 145.831 -43.6374 -117.373 -140.683 5.9937 -70.4409 1.54944 -0.263817 -9.45177 9.64265 -8.54204 -29.1571 -98.932 -61.0828 48.594 
-322.611 68.2819 335.718 65.9452 58.481 147.049 94.755 66.1047 161.805 -103.545 34.6387 14.2216 97.897 57.4708 26.2275 125.896 -34.7841 -27.6835 -147.875 -3.48229 151.692 157.018 43.1722 -158.114 175.854 8.70352 50.0493 -12.2336 3.89889 6.18216 -2.72888 3.69133 -92.3598 19.4109 -6.60136 -3.43592 7.75294 -6.74609 -3.14121 -14.8391 -5.26448 -5.26256 5.17352 -5.26449 -5.26255 123.397 -26.7122 -37.7223 83.8706 -62.0755 58.3203 4.20205 12.4388 -86.4669 37.8281 11.882 28.2151 -63.1501 -5.34181 140.9 148.25 -46.1004 -115.962 -138.501 6.27671 -70.7046 -5.03286 0.0248351 -9.32308 5.34264 -12.4361 -30.6615 -83.0814 -66.3423 63.5191 
-325.035 67.1644 337.716 62.6842 56.9445 153.149 76.7178 64.0362 177.211 -106.21 35.3866 14.7384 94.2344 57.7698 28.0482 126.124 -34.5687 -27.308 -143.565 -3.06192 154.58 168.401 38.649 -161.26 175.871 3.24432 44.2926 -7.54863 2.89097 7.17197 -2.89947 3.52982 -92.5831 19.7191 -7.0559 -3.77194 8.06279 -7.21493 -3.45675 -14.5342 -5.59736 -5.7197 5.47845 -5.59738 -5.71968 123.236 -27.4058 -38.4941 99.5052 -64.5085 79.8814 5.42605 17.4806 -92.5564 40.1108 10.6159 23.0834 -64.6521 -1.55474 140.495 150.129 -48.3576 -114.897 -136.209 6.46863 -71.0577 -11.3005 0.323735 -9.67495 0.868744 -16.1768 -32.0432 -62.7243 -68.5977 82.2378 
